<?xml version="1.0" encoding="UTF-8"?>
<!DOCTYPE svg PUBLIC "-//W3C//DTD SVG 1.1//EN" "http://www.w3.org/Graphics/SVG/1.1/DTD/svg11.dtd">
<!-- Creator: CorelDRAW 2021 (64-Bit) -->
<svg xmlns="http://www.w3.org/2000/svg" xml:space="preserve" width="86.6986mm" height="43.3492mm" version="1.1" style="shape-rendering:geometricPrecision; text-rendering:geometricPrecision; image-rendering:optimizeQuality; fill-rule:evenodd; clip-rule:evenodd"
viewBox="0 0 8669.86 4334.92"
 xmlns:xlink="http://www.w3.org/1999/xlink"
 xmlns:xodm="http://www.corel.com/coreldraw/odm/2003">
 <defs>
  <style type="text/css">
   <![CDATA[
    .str0 {stroke:#7C0A02;stroke-width:20;stroke-miterlimit:22.9256}
    .str1 {stroke:#7C0A02;stroke-width:20;stroke-miterlimit:22.9256}
    .fil4 {fill:#1A1A1A}
    .fil0 {fill:#7C0A02}
    .fil1 {fill:#7C0A02}
    .fil3 {fill:black;fill-rule:nonzero}
    .fil2 {fill:#7C0A02;fill-rule:nonzero}
   ]]>
  </style>
 </defs>
 <g id="Слой_x0020_1">
  <metadata id="CorelCorpID_0Corel-Layer"/>
  <g id="_2465488031632">
   <path class="fil0 str0" d="M2495.28 2479.89c72.79,-0.54 1037.16,206.25 1787.65,345.4l0 206.11c-526.08,-90.2 -1128.89,-215.62 -1593.07,-277.21 -138.52,-18.38 -259.95,-47.96 -362.92,-49.77l4.92 -96.94c3.15,-62.18 67.44,-126.87 163.42,-127.59z"/>
   <path class="fil0 str0" d="M2623.18 2182.24c553.72,169.08 1660.97,459.68 1661.78,671.81l0.21 54.67c-897.72,-293.65 -1317.19,-453.01 -1694.08,-529.13 -107.03,-21.62 -110.01,-30.32 -172.93,-42.48l11.78 -45.17c16.89,-64.77 102.11,-137.52 193.24,-109.7z"/>
   <path class="fil0 str0" d="M2912.41 1973.44c456.86,206.92 1370.43,575.66 1371.16,775.39l0.24 64.61c-1036.72,-557.24 -1319.78,-667.71 -1681.67,-733.02l46.84 -66.27c50.59,-71.56 133.67,-99.49 263.43,-40.71z"/>
   <polygon class="fil1 str1" points="2257.24,2718.41 4186.81,3020 4182.27,3062.44 2258.85,2750.16 "/>
   <path class="fil1 str1" d="M4153.63 3022.73l127.98 0 0 60.01 -104.13 0c-13.12,0 -23.85,-10.73 -23.85,-23.85l0 -36.16z"/>
   <path class="fil0 str0" d="M6063.2 2479.86c-72.79,-0.54 -1037.15,206.24 -1787.65,345.39l0 206.12c526.09,-90.2 1128.89,-215.62 1593.08,-277.21 138.52,-18.38 259.94,-47.96 362.91,-49.77l-4.91 -96.94c-3.16,-62.18 -67.44,-126.88 -163.43,-127.59z"/>
   <path class="fil0 str0" d="M5935.3 2182.21c-553.72,169.08 -1660.96,459.67 -1661.78,671.81l-0.21 54.67c897.72,-293.65 1317.2,-453.02 1694.08,-529.14 107.03,-21.61 110.01,-30.31 172.93,-42.48l-11.77 -45.16c-16.89,-64.77 -102.12,-137.52 -193.25,-109.7z"/>
   <path class="fil0 str0" d="M5646.07 1973.41c-456.86,206.92 -1370.43,575.66 -1371.16,775.39l-0.23 64.61c1036.72,-557.25 1319.78,-667.71 1681.67,-733.02l-46.85 -66.28c-50.58,-71.56 -133.66,-99.48 -263.43,-40.7z"/>
   <polygon class="fil1 str1" points="6301.25,2718.37 4371.67,3019.97 4376.21,3062.41 6299.63,2750.13 "/>
   <path class="fil1 str1" d="M4404.85 3022.69l-127.98 0 0 60.02 104.13 0c13.12,0 23.85,-10.73 23.85,-23.85l0 -36.17z"/>
  </g>
  <path class="fil2" d="M2733.12 3750.98l-119.3 0 -98.22 -152.14c-8.78,-14.06 -17.42,-25.96 -25.9,-35.83 -8.5,-9.87 -16.98,-17.99 -25.76,-24.34 -8.64,-6.36 -18.15,-10.96 -28.55,-13.93 -10.25,-2.84 -21.81,-4.33 -34.69,-4.33l-41.13 0 0 230.57 -101.58 0 0 -568.11 202.29 0c28.97,0 55.47,3.11 79.77,9.47 24.3,6.35 45.52,15.96 63.53,28.8 18,12.71 32.05,28.67 42.15,47.87 10.25,19.21 15.23,41.52 15.23,67.21 0,20.02 -3.23,38.41 -9.52,55.18 -6.44,16.77 -15.66,31.78 -27.52,44.76 -11.86,13.12 -26.2,24.34 -42.89,33.54 -16.68,9.19 -35.57,16.36 -56.35,21.36l0 1.63c11.12,5.81 20.78,12.17 29.13,19.2 8.34,7.03 16.09,14.2 23.56,21.64 7.47,7.3 14.79,15.68 22.11,25.15 7.31,9.33 15.37,20.15 24.3,32.59l109.34 159.71zm-373.55 -491.7l0 184.59 84.89 0c15.67,0 30.3,-2.16 43.47,-6.63 13.33,-4.6 24.89,-10.95 34.55,-19.47 9.81,-8.39 17.28,-18.8 22.69,-30.83 5.57,-12.17 8.2,-25.83 8.2,-40.84 0,-27.19 -9.23,-48.55 -27.81,-63.83 -18.6,-15.28 -45.38,-22.99 -80.22,-22.99l-85.77 0z"/>
  <path id="_1" class="fil2" d="M2804.7 3750.98l0 -568.11 195.11 0c59.43,0 106.57,12.04 141.26,35.97 34.69,24.07 52.1,55.45 52.1,93.99 0,32.18 -9.95,60.18 -29.57,83.98 -19.75,23.8 -47.13,40.7 -81.97,50.71l0 1.62c42.31,4.47 76.12,18.94 101.44,43.28 25.32,24.47 37.91,56.25 37.91,95.34 0,48.54 -20.63,87.9 -62.05,118.05 -41.58,30.16 -93.84,45.17 -157.07,45.17l-197.16 0zm101.58 -492.51l0 161.73 66.02 0c35.41,0 63.23,-7.7 83.43,-23.26 20.2,-15.41 30.16,-37.32 30.16,-65.58 0,-48.55 -35.14,-72.89 -105.4,-72.89l-74.21 0zm0 237.33l0 179.86 87.09 0c37.91,0 67.34,-8.12 88.12,-24.35 20.64,-16.22 31.03,-38.54 31.03,-67.07 0,-58.96 -44.2,-88.44 -132.47,-88.44l-73.77 0z"/>
  <path id="_2" class="fil3" d="M3808.1 3521.22c0,159.44 -81.83,239.23 -245.33,239.23 -156.62,0 -234.93,-76.68 -234.93,-230.17l0 -347.41 102.02 0 0 328.07c0,111.43 46.84,167.15 140.67,167.15 90.32,0 135.54,-53.82 135.54,-161.2l0 -334.02 102.03 0 0 338.35z"/>
  <polygon id="_3" class="fil3" points="4339.87,3750.98 4213.85,3750.98 4043.17,3556.11 4041.42,3556.11 4041.42,3750.98 3941.44,3750.98 3941.44,3150.42 4041.42,3150.42 4041.42,3531.09 4043.17,3531.09 4204.33,3345.28 4324.07,3345.28 4142.56,3540.97 "/>
  <path id="_4" class="fil3" d="M4657.21 3432.78c-12,-8.65 -29.42,-12.98 -51.97,-12.98 -29.42,0 -54.01,12.3 -73.76,36.78 -19.77,24.61 -29.57,58.02 -29.57,100.21l0 194.19 -99.54 0 0 -405.7 99.54 0 0 83.58 1.75 0c9.67,-28.54 24.59,-50.71 44.79,-66.81 20.21,-15.95 42.6,-23.93 67.49,-23.93 18,0 31.75,2.57 41.27,7.57l0 87.09z"/>
  <path id="_5" class="fil3" d="M5064.57 3750.98l-96.46 0 0 -63.42 -1.76 0c-30.29,48.68 -74.65,72.89 -133.35,72.89 -43.18,0 -76.99,-10.82 -101.43,-32.46 -24.44,-21.64 -36.6,-50.31 -36.6,-86.01 0,-76.54 47.73,-121.16 143.16,-133.88l130.42 -17.04c0,-57.87 -29.71,-86.81 -89.29,-86.81 -52.25,0 -99.38,16.76 -141.4,50.03l0 -80.46c46.26,-25.42 99.69,-38 160.28,-38 110.96,0 166.43,50.44 166.43,151.32l0 263.84zm-96.02 -199.33l-92.22 11.9c-28.54,3.51 -50.06,9.87 -64.54,19.2 -14.5,9.47 -21.67,25.83 -21.67,49.36 0,17.18 6.73,31.24 19.9,42.19 13.33,10.96 31.19,16.5 53.43,16.5 30.31,0 55.48,-9.87 75.24,-29.61 19.9,-19.61 29.86,-44.36 29.86,-74.25l0 -35.29z"/>
  <path id="_6" class="fil3" d="M5236.13 3260.09c-16.24,0 -30.15,-4.87 -41.71,-14.61 -11.72,-9.87 -17.43,-22.17 -17.43,-37.32 0,-15.01 5.71,-27.59 17.43,-37.59 11.56,-10.01 25.47,-15.02 41.71,-15.02 16.83,0 31.18,5.01 42.89,15.02 11.71,10 17.56,22.58 17.56,37.59 0,14.33 -5.85,26.51 -17.56,36.65 -11.71,10.14 -26.06,15.28 -42.89,15.28zm49.33 490.89l-99.54 0 0 -405.7 99.54 0 0 405.7z"/>
  <path id="_7" class="fil3" d="M5806.41 3750.98l-99.39 0 0 -228.54c0,-75.87 -29.13,-113.73 -87.09,-113.73 -30.31,0 -55.33,10.41 -75.1,31.51 -19.75,20.96 -29.56,47.46 -29.56,79.38l0 231.38 -99.98 0 0 -405.7 99.98 0 0 67.35 1.76 0c32.78,-51.25 80.35,-76.81 142.27,-76.81 47.86,0 84.32,14.33 109.34,43 25.18,28.54 37.77,70.05 37.77,124.15l0 248.01z"/>
  <path id="_8" class="fil3" d="M6299.55 3573.15l-299.19 0c1.02,37.46 13.61,66.4 37.47,86.68 23.86,20.42 56.65,30.57 98.36,30.57 46.99,0 89.87,-12.99 129.11,-38.82l0 73.98c-39.96,23.26 -92.96,34.89 -158.67,34.89 -64.55,0 -115.2,-18.4 -151.93,-55.18 -36.75,-36.92 -55.2,-88.71 -55.2,-155.51 0,-63.16 20.2,-114.55 60.75,-154.3 40.4,-39.76 90.61,-59.64 150.63,-59.64 60.16,0 106.56,17.85 139.48,53.42 32.79,35.7 49.19,85.19 49.19,148.61l0 35.3zm-96.02 -65.05c-0.29,-32.99 -8.64,-58.69 -25.33,-77.08 -16.54,-18.25 -39.37,-27.45 -68.49,-27.45 -28.7,0 -52.85,9.6 -72.75,28.94 -19.92,19.2 -32.06,44.49 -36.6,75.59l203.17 0z"/>
  <path class="fil4" d="M4263.14 1783.86c82.21,0 174.21,-28.59 174.21,67 0,134.06 -15.27,113.26 -41.31,244.57 -6.99,35.25 -13.86,61.2 -26.94,93.67l-34.49 86.12c-21.41,-5.71 -12.86,-13.94 -35.16,-22.9 -37.61,-15.11 -39.89,-7.23 -20.33,-95.12l46.56 -208.07c0,-46.94 -56.05,-114.7 -62.54,-165.27zm-799.59 -1429.44zm0 0zm0 0c28.64,-54.13 1.47,-101.88 -62.54,-107.21 7.64,15.92 22.34,97.97 22.34,125.08 -12.98,8.68 -6,9.03 -22.34,13.4 9.82,-42.15 -8.8,-71.32 -36.71,-97.3 -12.64,-11.77 -15.78,-11.17 -30.29,-18.84 0,132.61 102.63,281.69 186.48,371.88 21.13,22.73 73.91,80.39 82.2,105.42 5.56,16.78 8.21,28.96 15.89,46.65 36.92,85.13 193.84,224.72 265.98,296.85 11.52,11.52 19.76,19.69 31.34,31.21l87.38 100.23c16.68,25.34 29.04,53.07 38.45,86.62 38.47,137.07 15.93,106.86 15.93,216.36 -14.75,-10.8 -16.24,-27.42 -25.26,-46.22 -21.55,-44.96 -45.29,-103.95 -92.01,-126.87 -36.64,-17.97 -88.98,5.75 -109.37,22.39 -57.96,47.32 -29.82,91.69 -95.84,194.51 -28.95,45.09 -59.67,88.44 -80.84,138.05 -25.08,58.75 -47.85,104.49 -47.85,175.5l13.4 0c20.94,-89.86 45.27,-150.49 98.88,-222.75 23.88,-32.18 66.5,-74.82 96.96,-99.58 98.38,-79.94 102.88,45.65 183.85,107.92 8.63,6.64 10.62,9.29 19.19,16.55 90.12,76.37 173.56,38.7 234.01,159.08 37.16,74 39.93,125.16 21.17,219.34 -15.47,77.71 -36.57,132.37 -64.32,194.76 -20.2,45.43 -42.43,86.44 -69.78,126.77 -11.3,16.66 -19.65,21.09 -19.65,47.35 32.3,-23.67 51.4,-84.79 84.87,-107.21 0,27.1 6.21,51.57 10.23,79.11 3.06,21.02 10.17,54.05 12.1,77.24l8.94 0c0,-58.42 -8.94,-106.08 -8.94,-165.28l13.41 0c0,40.72 2.84,81.89 11.33,122.67 8.13,38.99 39.61,64.26 42.27,96.21l8.93 0c0,-59.36 -31.27,-98.34 -31.27,-160.81 14.45,20.78 21.38,51.96 32.7,74.51 12.77,25.43 25.94,44.92 47.71,59.5 -7.77,-33.37 -29.93,-63.86 -42.87,-95.6 -14.1,-34.59 -17.49,-86.33 20.53,-96.48 13.31,27.74 8.94,62.75 8.94,102.74 6.3,-7.25 4.6,-4.5 8.12,-14.22 24.86,-68.63 10.05,-164.63 103.44,-374.52 36.89,-82.9 -6.74,-121.94 17.8,-218.95 4.2,-16.61 10.15,-25.27 13.58,-40.03 49.39,0 103.49,18.13 142.95,8.94 0,-59.6 -68.96,-113.88 -87.32,-171.77 -13.5,-42.56 0.59,-73.99 5.96,-110.84 9.69,-66.51 -34.99,9.52 30.59,-214.86 16.14,-55.22 53.41,-131.71 82.23,-181.32 46.09,-79.3 37.92,-90.88 115.27,-148.29 62.57,-46.43 133.17,-82.7 193.79,-132.3 36.55,-29.9 73.39,-58.28 116.54,-80 59.72,-30.08 126.47,-52.28 190.08,-73.47 26.24,-8.74 78.03,-17.32 94.38,-39.64l-102.74 0c16.77,-11.65 43.87,-14.98 63.27,-21.59l18.77 -8.04c0.61,-0.32 1.93,-1.01 2.83,-1.63 -49.48,1.1 -124.32,22.7 -164.73,36.28 -145.76,49.03 -271.23,135.43 -408.55,203.43 -90.98,45.05 -162.13,100.37 -234.13,172.37 -33.92,33.91 -68.9,64.91 -95.89,105.12 -32.45,48.33 -53.78,121.8 -66.04,139.44 -6.06,-26.04 -12.3,-20.54 -13.4,-58.06 -2.02,-68.96 -58.34,-141.07 -89.31,-201.05 -19.08,-36.94 -55.88,-106.84 -81.68,-137.21l-62.51 -80.43c-35.72,-48.2 -86.9,-92.63 -132.78,-157.57 -9.3,-13.16 -17.95,-29.8 -29.18,-42.3 -16.12,-17.94 -39.37,-8.56 -60.17,-6.83 -25.66,-38.31 -31.85,-21.71 -31.12,-89.49 0.66,-60.28 -36.95,-88.6 -85.15,-102.47 -30.69,-8.82 -43.98,-38.66 -68.03,-57.09 -17.76,-13.61 -26.33,-7.37 -47.99,-5.56 -8.33,-15.75 -15.79,-27.21 -39.61,-26.1 -14.71,0.69 -8.79,3.7 -30.51,2.64 -17.55,-0.86 -7.42,-0.61 -28.15,1.12 -1.43,-17.23 -8.59,-22.47 -17.87,-31.27 -16.13,0.36 -51.58,8.15 -62.54,13.4 0,21.51 7.43,37.14 1.06,54.45 -6.06,16.48 -17.1,24.32 -36.79,25.96z"/>
 </g>
</svg>
